<svg id="visual" viewBox="0 0 900 600" width="900" height="600" xmlns="http://www.w3.org/2000/svg" xmlns:xlink="http://www.w3.org/1999/xlink" version="1.1"><g transform="translate(456.45123134636185 311.80305512659726)"><path d="M75.8 -96.2C91.2 -77.4 91.8 -46.9 97.7 -16.7C103.7 13.5 115.1 43.2 106.2 64C97.4 84.7 68.4 96.4 41.9 99.1C15.4 101.8 -8.6 95.5 -36.3 89.8C-64.1 84 -95.7 78.8 -110.6 60.3C-125.6 41.8 -123.8 10.1 -118.7 -21.3C-113.6 -52.7 -105 -83.8 -84.6 -101.7C-64.3 -119.6 -32.1 -124.3 -1 -123.2C30.2 -122 60.4 -115 75.8 -96.2" fill="#715DF2"></path></g></svg>