<svg id="visual" viewBox="0 0 900 450" width="900" height="450" xmlns="http://www.w3.org/2000/svg" xmlns:xlink="http://www.w3.org/1999/xlink" version="1.1"><rect width="900" height="450" fill="#000000"></rect><g><g transform="translate(887 37)"><path d="M0 -25.4L17.9 -17.9L25.4 0L17.9 17.9L0 25.4L-17.9 17.9L-25.4 0L-17.9 -17.9Z" fill="none" stroke="#8829a6" stroke-width="2"></path></g><g transform="translate(248 332)"><path d="M0 -24L17 -17L24 0L17 17L0 24L-17 17L-24 0L-17 -17Z" fill="none" stroke="#8829a6" stroke-width="2"></path></g><g transform="translate(360 391)"><path d="M0 -15L10.6 -10.6L15 0L10.6 10.6L0 15L-10.6 10.6L-15 0L-10.6 -10.6Z" stroke="#8829a6" fill="none" stroke-width="2"></path></g><g transform="translate(550 292)"><path d="M0 -7L4.9 -4.9L7 0L4.9 4.9L0 7L-4.9 4.9L-7 0L-4.9 -4.9Z" stroke="#8829a6" fill="none" stroke-width="2"></path></g><g transform="translate(233 63)"><path d="M0 -11L7.8 -7.8L11 0L7.8 7.8L0 11L-7.8 7.8L-11 0L-7.8 -7.8Z" stroke="#8829a6" fill="none" stroke-width="2"></path></g><g transform="translate(875 305)"><path d="M0 -20L14.1 -14.1L20 0L14.1 14.1L0 20L-14.1 14.1L-20 0L-14.1 -14.1Z" stroke="#8829a6" fill="none" stroke-width="2"></path></g><g transform="translate(82 95)"><path d="M0 -12L8.5 -8.5L12 0L8.5 8.5L0 12L-8.5 8.5L-12 0L-8.5 -8.5Z" stroke="#8829a6" fill="none" stroke-width="2"></path></g><g transform="translate(432 426)"><path d="M0 -19L13.4 -13.4L19 0L13.4 13.4L0 19L-13.4 13.4L-19 0L-13.4 -13.4Z" stroke="#8829a6" fill="none" stroke-width="2"></path></g><g transform="translate(740 283)"><path d="M0 -10L7.1 -7.1L10 0L7.1 7.1L0 10L-7.1 7.1L-10 0L-7.1 -7.1Z" stroke="#8829a6" fill="none" stroke-width="2"></path></g><g transform="translate(45 428)"><path d="M0 -5L3.5 -3.5L5 0L3.5 3.5L0 5L-3.5 3.5L-5 0L-3.5 -3.5Z" stroke="#8829a6" fill="none" stroke-width="2"></path></g><g transform="translate(395 48)"><path d="M0 -11L7.8 -7.8L11 0L7.8 7.8L0 11L-7.8 7.8L-11 0L-7.8 -7.8Z" stroke="#8829a6" fill="none" stroke-width="2"></path></g><g transform="translate(386 343)"><path d="M0 -15L10.6 -10.6L15 0L10.6 10.6L0 15L-10.6 10.6L-15 0L-10.6 -10.6Z" stroke="#8829a6" fill="none" stroke-width="2"></path></g><g transform="translate(865 250)"><path d="M0 -4L2.8 -2.8L4 0L2.8 2.8L0 4L-2.8 2.8L-4 0L-2.8 -2.8Z" stroke="#8829a6" fill="none" stroke-width="2"></path></g><g transform="translate(588 24)"><path d="M0 -9L6.4 -6.4L9 0L6.4 6.4L0 9L-6.4 6.4L-9 0L-6.4 -6.4Z" stroke="#8829a6" fill="none" stroke-width="2"></path></g><g transform="translate(570 243)"><path d="M0 -12L8.5 -8.5L12 0L8.5 8.5L0 12L-8.5 8.5L-12 0L-8.5 -8.5Z" stroke="#8829a6" fill="none" stroke-width="2"></path></g><g transform="translate(597 314)"><path d="M0 -5L3.5 -3.5L5 0L3.5 3.5L0 5L-3.5 3.5L-5 0L-3.5 -3.5Z" stroke="#8829a6" fill="none" stroke-width="2"></path></g><g transform="translate(847 151)"><path d="M0 -9L6.4 -6.4L9 0L6.4 6.4L0 9L-6.4 6.4L-9 0L-6.4 -6.4Z" stroke="#8829a6" fill="none" stroke-width="2"></path></g><g transform="translate(521 397)"><path d="M0 -21L14.8 -14.8L21 0L14.8 14.8L0 21L-14.8 14.8L-21 0L-14.8 -14.8Z" stroke="#8829a6" fill="none" stroke-width="2"></path></g><g transform="translate(452 3)"><path d="M0 -19L13.4 -13.4L19 0L13.4 13.4L0 19L-13.4 13.4L-19 0L-13.4 -13.4Z" stroke="#8829a6" fill="none" stroke-width="2"></path></g><g transform="translate(723 414)"><path d="M0 -9L6.4 -6.4L9 0L6.4 6.4L0 9L-6.4 6.4L-9 0L-6.4 -6.4Z" stroke="#8829a6" fill="none" stroke-width="2"></path></g><g transform="translate(503 39)"><path d="M0 -23L16.3 -16.3L23 0L16.3 16.3L0 23L-16.3 16.3L-23 0L-16.3 -16.3Z" stroke="#8829a6" fill="none" stroke-width="2"></path></g><g transform="translate(3 134)"><path d="M0 -22L15.6 -15.6L22 0L15.6 15.6L0 22L-15.6 15.6L-22 0L-15.6 -15.6Z" stroke="#8829a6" fill="none" stroke-width="2"></path></g><g transform="translate(238 195)"><path d="M0 -13L9.2 -9.2L13 0L9.2 9.2L0 13L-9.2 9.2L-13 0L-9.2 -9.2Z" stroke="#8829a6" fill="none" stroke-width="2"></path></g><g transform="translate(745 94)"><path d="M0 -9L6.4 -6.4L9 0L6.4 6.4L0 9L-6.4 6.4L-9 0L-6.4 -6.4Z" stroke="#8829a6" fill="none" stroke-width="2"></path></g><g transform="translate(713 180)"><path d="M0 -3L2.1 -2.1L3 0L2.1 2.1L0 3L-2.1 2.1L-3 0L-2.1 -2.1Z" stroke="#8829a6" fill="none" stroke-width="2"></path></g><g transform="translate(678 128)"><path d="M0 -24L17 -17L24 0L17 17L0 24L-17 17L-24 0L-17 -17Z" stroke="#8829a6" fill="none" stroke-width="2"></path></g><g transform="translate(851 98)"><path d="M0 -18L12.7 -12.7L18 0L12.7 12.7L0 18L-12.7 12.7L-18 0L-12.7 -12.7Z" stroke="#8829a6" fill="none" stroke-width="2"></path></g><g transform="translate(735 13)"><path d="M0 -3L2.1 -2.1L3 0L2.1 2.1L0 3L-2.1 2.1L-3 0L-2.1 -2.1Z" stroke="#8829a6" fill="none" stroke-width="2"></path></g><g transform="translate(528 130)"><path d="M0 -22L15.6 -15.6L22 0L15.6 15.6L0 22L-15.6 15.6L-22 0L-15.6 -15.6Z" stroke="#8829a6" fill="none" stroke-width="2"></path></g><g transform="translate(137 168)"><path d="M0 -14L9.9 -9.9L14 0L9.9 9.9L0 14L-9.9 9.9L-14 0L-9.9 -9.9Z" stroke="#8829a6" fill="none" stroke-width="2"></path></g><g transform="translate(480 107)"><path d="M0 -8L5.7 -5.7L8 0L5.7 5.7L0 8L-5.7 5.7L-8 0L-5.7 -5.7Z" stroke="#8829a6" fill="none" stroke-width="2"></path></g><g transform="translate(32 88)"><path d="M0 -4L2.8 -2.8L4 0L2.8 2.8L0 4L-2.8 2.8L-4 0L-2.8 -2.8Z" stroke="#8829a6" fill="none" stroke-width="2"></path></g><g transform="translate(661 268)"><path d="M0 -23L16.3 -16.3L23 0L16.3 16.3L0 23L-16.3 16.3L-23 0L-16.3 -16.3Z" stroke="#8829a6" fill="none" stroke-width="2"></path></g><g transform="translate(417 158)"><path d="M0 -24L17 -17L24 0L17 17L0 24L-17 17L-24 0L-17 -17Z" stroke="#8829a6" fill="none" stroke-width="2"></path></g><g transform="translate(581 187)"><path d="M0 -11L7.8 -7.8L11 0L7.8 7.8L0 11L-7.8 7.8L-11 0L-7.8 -7.8Z" stroke="#8829a6" fill="none" stroke-width="2"></path></g><g transform="translate(799 5)"><path d="M0 -9L6.4 -6.4L9 0L6.4 6.4L0 9L-6.4 6.4L-9 0L-6.4 -6.4Z" stroke="#8829a6" fill="none" stroke-width="2"></path></g><g transform="translate(664 391)"><path d="M0 -22L15.6 -15.6L22 0L15.6 15.6L0 22L-15.6 15.6L-22 0L-15.6 -15.6Z" stroke="#8829a6" fill="none" stroke-width="2"></path></g><g transform="translate(435 235)"><path d="M0 -17L12 -12L17 0L12 12L0 17L-12 12L-17 0L-12 -12Z" stroke="#8829a6" fill="none" stroke-width="2"></path></g><g transform="translate(627 120)"><path d="M0 -19L13.4 -13.4L19 0L13.4 13.4L0 19L-13.4 13.4L-19 0L-13.4 -13.4Z" stroke="#8829a6" fill="none" stroke-width="2"></path></g><g transform="translate(180 242)"><path d="M0 -17L12 -12L17 0L12 12L0 17L-12 12L-17 0L-12 -12Z" stroke="#8829a6" fill="none" stroke-width="2"></path></g><g transform="translate(477 326)"><path d="M0 -6L4.2 -4.2L6 0L4.2 4.2L0 6L-4.2 4.2L-6 0L-4.2 -4.2Z" stroke="#8829a6" fill="none" stroke-width="2"></path></g><g transform="translate(59 42)"><path d="M0 -10L7.1 -7.1L10 0L7.1 7.1L0 10L-7.1 7.1L-10 0L-7.1 -7.1Z" stroke="#8829a6" fill="none" stroke-width="2"></path></g><g transform="translate(883 376)"><path d="M0 -18L12.7 -12.7L18 0L12.7 12.7L0 18L-12.7 12.7L-18 0L-12.7 -12.7Z" stroke="#8829a6" fill="none" stroke-width="2"></path></g><g transform="translate(301 290)"><path d="M0 -7L4.9 -4.9L7 0L4.9 4.9L0 7L-4.9 4.9L-7 0L-4.9 -4.9Z" stroke="#8829a6" fill="none" stroke-width="2"></path></g><g transform="translate(662 63)"><path d="M0 -11L7.8 -7.8L11 0L7.8 7.8L0 11L-7.8 7.8L-11 0L-7.8 -7.8Z" stroke="#8829a6" fill="none" stroke-width="2"></path></g><g transform="translate(587 434)"><path d="M0 -7L4.9 -4.9L7 0L4.9 4.9L0 7L-4.9 4.9L-7 0L-4.9 -4.9Z" stroke="#8829a6" fill="none" stroke-width="2"></path></g><g transform="translate(296 396)"><path d="M0 -15L10.6 -10.6L15 0L10.6 10.6L0 15L-10.6 10.6L-15 0L-10.6 -10.6Z" stroke="#8829a6" fill="none" stroke-width="2"></path></g><g transform="translate(24 247)"><path d="M0 -17L12 -12L17 0L12 12L0 17L-12 12L-17 0L-12 -12Z" stroke="#8829a6" fill="none" stroke-width="2"></path></g><g transform="translate(153 288)"><path d="M0 -22L15.6 -15.6L22 0L15.6 15.6L0 22L-15.6 15.6L-22 0L-15.6 -15.6Z" stroke="#8829a6" fill="none" stroke-width="2"></path></g><g transform="translate(820 218)"><path d="M0 -16L11.3 -11.3L16 0L11.3 11.3L0 16L-11.3 11.3L-16 0L-11.3 -11.3Z" stroke="#8829a6" fill="none" stroke-width="2"></path></g><g transform="translate(341 81)"><path d="M0 -14L9.9 -9.9L14 0L9.9 9.9L0 14L-9.9 9.9L-14 0L-9.9 -9.9Z" stroke="#8829a6" fill="none" stroke-width="2"></path></g><g transform="translate(15 355)"><path d="M0 -5L3.5 -3.5L5 0L3.5 3.5L0 5L-3.5 3.5L-5 0L-3.5 -3.5Z" stroke="#8829a6" fill="none" stroke-width="2"></path></g><g transform="translate(824 292)"><path d="M0 -12L8.5 -8.5L12 0L8.5 8.5L0 12L-8.5 8.5L-12 0L-8.5 -8.5Z" stroke="#8829a6" fill="none" stroke-width="2"></path></g><g transform="translate(226 412)"><path d="M0 -18L12.7 -12.7L18 0L12.7 12.7L0 18L-12.7 12.7L-18 0L-12.7 -12.7Z" stroke="#8829a6" fill="none" stroke-width="2"></path></g><g transform="translate(520 206)"><path d="M0 -17L12 -12L17 0L12 12L0 17L-12 12L-17 0L-12 -12Z" stroke="#8829a6" fill="none" stroke-width="2"></path></g><g transform="translate(776 52)"><path d="M0 -5L3.5 -3.5L5 0L3.5 3.5L0 5L-3.5 3.5L-5 0L-3.5 -3.5Z" stroke="#8829a6" fill="none" stroke-width="2"></path></g><g transform="translate(141 9)"><path d="M0 -24L17 -17L24 0L17 17L0 24L-17 17L-24 0L-17 -17Z" stroke="#8829a6" fill="none" stroke-width="2"></path></g><g transform="translate(99 258)"><path d="M0 -19L13.4 -13.4L19 0L13.4 13.4L0 19L-13.4 13.4L-19 0L-13.4 -13.4Z" stroke="#8829a6" fill="none" stroke-width="2"></path></g><g transform="translate(116 447)"><path d="M0 -7L4.9 -4.9L7 0L4.9 4.9L0 7L-4.9 4.9L-7 0L-4.9 -4.9Z" stroke="#8829a6" fill="none" stroke-width="2"></path></g><g transform="translate(883 436)"><path d="M0 -17L12 -12L17 0L12 12L0 17L-12 12L-17 0L-12 -12Z" stroke="#8829a6" fill="none" stroke-width="2"></path></g><g transform="translate(341 257)"><path d="M0 -22L15.6 -15.6L22 0L15.6 15.6L0 22L-15.6 15.6L-22 0L-15.6 -15.6Z" stroke="#8829a6" fill="none" stroke-width="2"></path></g><g transform="translate(234 266)"><path d="M0 -19L13.4 -13.4L19 0L13.4 13.4L0 19L-13.4 13.4L-19 0L-13.4 -13.4Z" stroke="#8829a6" fill="none" stroke-width="2"></path></g><g transform="translate(132 370)"><path d="M0 -14L9.9 -9.9L14 0L9.9 9.9L0 14L-9.9 9.9L-14 0L-9.9 -9.9Z" stroke="#8829a6" fill="none" stroke-width="2"></path></g><g transform="translate(453 55)"><path d="M0 -6L4.2 -4.2L6 0L4.2 4.2L0 6L-4.2 4.2L-6 0L-4.2 -4.2Z" stroke="#8829a6" fill="none" stroke-width="2"></path></g><g transform="translate(178 85)"><path d="M0 -18L12.7 -12.7L18 0L12.7 12.7L0 18L-12.7 12.7L-18 0L-12.7 -12.7Z" stroke="#8829a6" fill="none" stroke-width="2"></path></g><g transform="translate(754 355)"><path d="M0 -12L8.5 -8.5L12 0L8.5 8.5L0 12L-8.5 8.5L-12 0L-8.5 -8.5Z" stroke="#8829a6" fill="none" stroke-width="2"></path></g><g transform="translate(796 155)"><path d="M0 -7L4.9 -4.9L7 0L4.9 4.9L0 7L-4.9 4.9L-7 0L-4.9 -4.9Z" stroke="#8829a6" fill="none" stroke-width="2"></path></g><g transform="translate(389 108)"><path d="M0 -23L16.3 -16.3L23 0L16.3 16.3L0 23L-16.3 16.3L-23 0L-16.3 -16.3Z" stroke="#8829a6" fill="none" stroke-width="2"></path></g><g transform="translate(178 436)"><path d="M0 -10L7.1 -7.1L10 0L7.1 7.1L0 10L-7.1 7.1L-10 0L-7.1 -7.1Z" stroke="#8829a6" fill="none" stroke-width="2"></path></g><g transform="translate(9 303)"><path d="M0 -10L7.1 -7.1L10 0L7.1 7.1L0 10L-7.1 7.1L-10 0L-7.1 -7.1Z" stroke="#8829a6" fill="none" stroke-width="2"></path></g><g transform="translate(635 176)"><path d="M0 -16L11.3 -11.3L16 0L11.3 11.3L0 16L-11.3 11.3L-16 0L-11.3 -11.3Z" stroke="#8829a6" fill="none" stroke-width="2"></path></g><g transform="translate(296 227)"><path d="M0 -4L2.8 -2.8L4 0L2.8 2.8L0 4L-2.8 2.8L-4 0L-2.8 -2.8Z" stroke="#8829a6" fill="none" stroke-width="2"></path></g><g transform="translate(75 154)"><path d="M0 -8L5.7 -5.7L8 0L5.7 5.7L0 8L-5.7 5.7L-8 0L-5.7 -5.7Z" stroke="#8829a6" fill="none" stroke-width="2"></path></g><g transform="translate(681 12)"><path d="M0 -7L4.9 -4.9L7 0L4.9 4.9L0 7L-4.9 4.9L-7 0L-4.9 -4.9Z" stroke="#8829a6" fill="none" stroke-width="2"></path></g><g transform="translate(895 127)"><path d="M0 -10L7.1 -7.1L10 0L7.1 7.1L0 10L-7.1 7.1L-10 0L-7.1 -7.1Z" stroke="#8829a6" fill="none" stroke-width="2"></path></g><g transform="translate(346 27)"><path d="M0 -19L13.4 -13.4L19 0L13.4 13.4L0 19L-13.4 13.4L-19 0L-13.4 -13.4Z" stroke="#8829a6" fill="none" stroke-width="2"></path></g><g transform="translate(320 182)"><path d="M0 -16L11.3 -11.3L16 0L11.3 11.3L0 16L-11.3 11.3L-16 0L-11.3 -11.3Z" stroke="#8829a6" fill="none" stroke-width="2"></path></g><g transform="translate(778 404)"><path d="M0 -14L9.9 -9.9L14 0L9.9 9.9L0 14L-9.9 9.9L-14 0L-9.9 -9.9Z" stroke="#8829a6" fill="none" stroke-width="2"></path></g><g transform="translate(82 307)"><path d="M0 -16L11.3 -11.3L16 0L11.3 11.3L0 16L-11.3 11.3L-16 0L-11.3 -11.3Z" stroke="#8829a6" fill="none" stroke-width="2"></path></g><g transform="translate(379 197)"><path d="M0 -7L4.9 -4.9L7 0L4.9 4.9L0 7L-4.9 4.9L-7 0L-4.9 -4.9Z" stroke="#8829a6" fill="none" stroke-width="2"></path></g><g transform="translate(466 276)"><path d="M0 -5L3.5 -3.5L5 0L3.5 3.5L0 5L-3.5 3.5L-5 0L-3.5 -3.5Z" stroke="#8829a6" fill="none" stroke-width="2"></path></g><g transform="translate(4 25)"><path d="M0 -7L4.9 -4.9L7 0L4.9 4.9L0 7L-4.9 4.9L-7 0L-4.9 -4.9Z" stroke="#8829a6" fill="none" stroke-width="2"></path></g><g transform="translate(394 283)"><path d="M0 -17L12 -12L17 0L12 12L0 17L-12 12L-17 0L-12 -12Z" stroke="#8829a6" fill="none" stroke-width="2"></path></g><g transform="translate(620 225)"><path d="M0 -11L7.8 -7.8L11 0L7.8 7.8L0 11L-7.8 7.8L-11 0L-7.8 -7.8Z" stroke="#8829a6" fill="none" stroke-width="2"></path></g><g transform="translate(323 446)"><path d="M0 -3L2.1 -2.1L3 0L2.1 2.1L0 3L-2.1 2.1L-3 0L-2.1 -2.1Z" stroke="#8829a6" fill="none" stroke-width="2"></path></g><g transform="translate(763 219)"><path d="M0 -18L12.7 -12.7L18 0L12.7 12.7L0 18L-12.7 12.7L-18 0L-12.7 -12.7Z" stroke="#8829a6" fill="none" stroke-width="2"></path></g><g transform="translate(594 78)"><path d="M0 -18L12.7 -12.7L18 0L12.7 12.7L0 18L-12.7 12.7L-18 0L-12.7 -12.7Z" stroke="#8829a6" fill="none" stroke-width="2"></path></g><g transform="translate(616 364)"><path d="M0 -24L17 -17L24 0L17 17L0 24L-17 17L-24 0L-17 -17Z" stroke="#8829a6" fill="none" stroke-width="2"></path></g><g transform="translate(72 380)"><path d="M0 -8L5.7 -5.7L8 0L5.7 5.7L0 8L-5.7 5.7L-8 0L-5.7 -5.7Z" stroke="#8829a6" fill="none" stroke-width="2"></path></g><g transform="translate(287 52)"><path d="M0 -6L4.2 -4.2L6 0L4.2 4.2L0 6L-4.2 4.2L-6 0L-4.2 -4.2Z" stroke="#8829a6" fill="none" stroke-width="2"></path></g><g transform="translate(257 128)"><path d="M0 -12L8.5 -8.5L12 0L8.5 8.5L0 12L-8.5 8.5L-12 0L-8.5 -8.5Z" stroke="#8829a6" fill="none" stroke-width="2"></path></g><g transform="translate(840 403)"><path d="M0 -21L14.8 -14.8L21 0L14.8 14.8L0 21L-14.8 14.8L-21 0L-14.8 -14.8Z" stroke="#8829a6" fill="none" stroke-width="2"></path></g><g transform="translate(471 170)"><path d="M0 -8L5.7 -5.7L8 0L5.7 5.7L0 8L-5.7 5.7L-8 0L-5.7 -5.7Z" stroke="#8829a6" fill="none" stroke-width="2"></path></g><g transform="translate(187 345)"><path d="M0 -22L15.6 -15.6L22 0L15.6 15.6L0 22L-15.6 15.6L-22 0L-15.6 -15.6Z" stroke="#8829a6" fill="none" stroke-width="2"></path></g><g transform="translate(696 336)"><path d="M0 -20L14.1 -14.1L20 0L14.1 14.1L0 20L-14.1 14.1L-20 0L-14.1 -14.1Z" stroke="#8829a6" fill="none" stroke-width="2"></path></g><g transform="translate(68 208)"><path d="M0 -16L11.3 -11.3L16 0L11.3 11.3L0 16L-11.3 11.3L-16 0L-11.3 -11.3Z" stroke="#8829a6" fill="none" stroke-width="2"></path></g><g transform="translate(815 349)"><path d="M0 -3L2.1 -2.1L3 0L2.1 2.1L0 3L-2.1 2.1L-3 0L-2.1 -2.1Z" stroke="#8829a6" fill="none" stroke-width="2"></path></g><g transform="translate(452 375)"><path d="M0 -23L16.3 -16.3L23 0L16.3 16.3L0 23L-16.3 16.3L-23 0L-16.3 -16.3Z" stroke="#8829a6" fill="none" stroke-width="2"></path></g><g transform="translate(194 141)"><path d="M0 -9L6.4 -6.4L9 0L6.4 6.4L0 9L-6.4 6.4L-9 0L-6.4 -6.4Z" stroke="#8829a6" fill="none" stroke-width="2"></path></g><g transform="translate(5 198)"><path d="M0 -20L14.1 -14.1L20 0L14.1 14.1L0 20L-14.1 14.1L-20 0L-14.1 -14.1Z" stroke="#8829a6" fill="none" stroke-width="2"></path></g><g transform="translate(325 341)"><path d="M0 -15L10.6 -10.6L15 0L10.6 10.6L0 15L-10.6 10.6L-15 0L-10.6 -10.6Z" stroke="#8829a6" fill="none" stroke-width="2"></path></g><g transform="translate(709 232)"><path d="M0 -11L7.8 -7.8L11 0L7.8 7.8L0 11L-7.8 7.8L-11 0L-7.8 -7.8Z" stroke="#8829a6" fill="none" stroke-width="2"></path></g><g transform="translate(259 8)"><path d="M0 -20L14.1 -14.1L20 0L14.1 14.1L0 20L-14.1 14.1L-20 0L-14.1 -14.1Z" stroke="#8829a6" fill="none" stroke-width="2"></path></g><g transform="translate(115 55)"><path d="M0 -6L4.2 -4.2L6 0L4.2 4.2L0 6L-4.2 4.2L-6 0L-4.2 -4.2Z" stroke="#8829a6" fill="none" stroke-width="2"></path></g><g transform="translate(492 442)"><path d="M0 -17L12 -12L17 0L12 12L0 17L-12 12L-17 0L-12 -12Z" stroke="#8829a6" fill="none" stroke-width="2"></path></g><g transform="translate(533 343)"><path d="M0 -18L12.7 -12.7L18 0L12.7 12.7L0 18L-12.7 12.7L-18 0L-12.7 -12.7Z" stroke="#8829a6" fill="none" stroke-width="2"></path></g><g transform="translate(881 197)"><path d="M0 -3L2.1 -2.1L3 0L2.1 2.1L0 3L-2.1 2.1L-3 0L-2.1 -2.1Z" stroke="#8829a6" fill="none" stroke-width="2"></path></g><g transform="translate(661 445)"><path d="M0 -12L8.5 -8.5L12 0L8.5 8.5L0 12L-8.5 8.5L-12 0L-8.5 -8.5Z" stroke="#8829a6" fill="none" stroke-width="2"></path></g><g transform="translate(131 110)"><path d="M0 -15L10.6 -10.6L15 0L10.6 10.6L0 15L-10.6 10.6L-15 0L-10.6 -10.6Z" stroke="#8829a6" fill="none" stroke-width="2"></path></g><g transform="translate(205 7)"><path d="M0 -18L12.7 -12.7L18 0L12.7 12.7L0 18L-12.7 12.7L-18 0L-12.7 -12.7Z" stroke="#8829a6" fill="none" stroke-width="2"></path></g><g transform="translate(377 441)"><path d="M0 -22L15.6 -15.6L22 0L15.6 15.6L0 22L-15.6 15.6L-22 0L-15.6 -15.6Z" stroke="#8829a6" fill="none" stroke-width="2"></path></g></g></svg>